<?xml version="1.0" encoding="UTF-8"?>
<svg version="1.1" xmlns="http://www.w3.org/2000/svg" width="144" height="188">
<path d="M0 0 C0.86625 0.474375 1.7325 0.94875 2.625 1.4375 C5.85426132 3.1289541 5.85426132 3.1289541 9.0625 3.4375 C12.64742302 4.12397462 14.18239408 5.74591526 17 8 C20.18762109 8.79690838 20.18762109 8.79690838 23 9 C23.25 15.625 23.25 15.625 21 19 C19.86895919 21.02016012 19.86895919 21.02016012 19.5625 23.5625 C19.2840625 24.7690625 19.2840625 24.7690625 19 26 C18.34 26.33 17.68 26.66 17 27 C16.28966706 29.20992469 15.93559486 31.39563156 15.5625 33.6875 C15.2840625 34.8321875 15.2840625 34.8321875 15 36 C14.01 36.495 14.01 36.495 13 37 C12.39938767 38.90178785 12.39938767 38.90178785 12 41 C11.67 41.99 11.34 42.98 11 44 C11.66 44.66 12.32 45.32 13 46 C13.2475 45.21625 13.495 44.4325 13.75 43.625 C15.20780864 40.56360186 16.07993473 40.41293481 19 39 C19.36162029 37.67405895 19.69728039 36.34061543 20 35 C20.99 34.67 21.98 34.34 23 34 C23.144375 33.360625 23.28875 32.72125 23.4375 32.0625 C23.7159375 31.0415625 23.7159375 31.0415625 24 30 C25.31647119 29.30062468 26.65022151 28.63270867 28 28 C28.495 26.515 28.495 26.515 29 25 C29.9793879 23.97980427 30.97895449 22.97850195 32 22 C32.33 21.34 32.66 20.68 33 20 C36.71013399 17.52657734 38.61060262 17.61496514 43 18 C45.125 19.375 45.125 19.375 47 21 C49.95037123 22.32766706 52.84361714 23.29858159 56 24 C56.495 22.515 56.495 22.515 57 21 C58 18 58 18 60 16 C62.8203125 15.8046875 62.8203125 15.8046875 66.125 15.875 C67.22070312 15.89304687 68.31640625 15.91109375 69.4453125 15.9296875 C70.70988281 15.96449219 70.70988281 15.96449219 72 16 C72 17.65 72 19.3 72 21 C71.34 21.33 70.68 21.66 70 22 C69.67 22.66 69.34 23.32 69 24 C68.01 25.485 68.01 25.485 67 27 C66.67 27.66 66.34 28.32 66 29 C65.401875 29.7425 64.80375 30.485 64.1875 31.25 C59.18481841 37.47300887 59.18481841 37.47300887 57 45 C56.34 45 55.68 45 55 45 C54.525625 45.94875 54.05125 46.8975 53.5625 47.875 C52.11672651 50.76654698 50.79547736 53.30678396 49 56 C47.31702177 58.69276517 46.00753932 60.97738205 45 64 C44.34 64 43.68 64 43 64 C42.71125 65.093125 42.4225 66.18625 42.125 67.3125 C41 71 41 71 39 74 C39.67546875 73.97679688 40.3509375 73.95359375 41.046875 73.9296875 C41.93890625 73.91164063 42.8309375 73.89359375 43.75 73.875 C44.63171875 73.85179688 45.5134375 73.82859375 46.421875 73.8046875 C49.15026443 74.01138367 50.64700339 74.6639765 53 76 C53.9075 76.28875 54.815 76.5775 55.75 76.875 C59.69808828 78.24164594 63.30373396 80.06743451 67 82 C67 82.66 67 83.32 67 84 C67.969375 84.391875 68.93875 84.78375 69.9375 85.1875 C73 87 73 87 74 89.1875 C74 95.91553419 71.68430402 101.47354397 68 107 C67.67 107.845625 67.34 108.69125 67 109.5625 C66 112 66 112 64 114 C63.34 114.99 62.68 115.98 62 117 C61.34 117.99 60.68 118.98 60 120 C59.67 120.66 59.34 121.32 59 122 C58.34 122.99 57.68 123.98 57 125 C57 125.66 57 126.32 57 127 C54.6875 127.1875 54.6875 127.1875 52 127 C51.566875 126.54625 51.13375 126.0925 50.6875 125.625 C48.3615348 123.38518166 46.03922899 123.21225418 42.94140625 122.5390625 C40.49861361 121.86078205 38.85808095 120.70324087 37 119 C38.56150759 115.87698483 40.05824707 112.9126294 42 110 C42.33 109.34 42.66 108.68 43 108 C43.99 106.515 43.99 106.515 45 105 C45.33 104.34 45.66 103.68 46 103 C46.99 101.515 46.99 101.515 48 100 C48.33 99.34 48.66 98.68 49 98 C49.66 97.34 50.32 96.68 51 96 C51 95.01 51 94.02 51 93 C50.34 92.67 49.68 92.34 49 92 C48.67 92.66 48.34 93.32 48 94 C47.34 94.99 46.68 95.98 46 97 C45.67 97.66 45.34 98.32 45 99 C44.505 99.433125 44.01 99.86625 43.5 100.3125 C41.59885546 102.45128761 41.37756711 104.20600342 41 107 C40.34 107 39.68 107 39 107 C38.67 108.65 38.34 110.3 38 112 C37.34 112 36.68 112 36 112 C35.87625 112.804375 35.7525 113.60875 35.625 114.4375 C35.41875 115.283125 35.2125 116.12875 35 117 C34.01 117.495 34.01 117.495 33 118 C32.67 118.66 32.34 119.32 32 120 C31.34 120.99 30.68 121.98 30 123 C29.67 123.66 29.34 124.32 29 125 C28.34 125.99 27.68 126.98 27 128 C26.67 128.66 26.34 129.32 26 130 C25.34 130.99 24.68 131.98 24 133 C23.67 133.66 23.34 134.32 23 135 C21.66666667 137 20.33333333 139 19 141 C18.67 141.66 18.34 142.32 18 143 C17.34 143.99 16.68 144.98 16 146 C15.30686092 147.65583225 14.63525576 149.32110979 14 151 C13.34 151 12.68 151 12 151 C11.67 152.65 11.34 154.3 11 156 C10.34 156 9.68 156 9 156 C8.67 157.65 8.34 159.3 8 161 C7.34 161 6.68 161 6 161 C4.61061923 162.96147874 3.2739589 164.96166576 2 167 C-1.01098336 166.51824266 -2.65392045 165.59284198 -5.3125 163.9375 C-8.94032441 161.78738855 -11.76420785 161.50167151 -16 162 C-18.19933157 164.19933157 -20.0657996 166.56665111 -22 169 C-23 170 -23 170 -25.50390625 170.09765625 C-27.01791016 170.08025391 -27.01791016 170.08025391 -28.5625 170.0625 C-29.57441406 170.05347656 -30.58632813 170.04445312 -31.62890625 170.03515625 C-32.80259766 170.01775391 -32.80259766 170.01775391 -34 170 C-32.78405438 166.92197865 -31.52079784 163.94020916 -30 161 C-29.67 160.34 -29.34 159.68 -29 159 C-27.66666667 157 -26.33333333 155 -25 153 C-24.67 152.34 -24.34 151.68 -24 151 C-23.01 149.7934375 -23.01 149.7934375 -22 148.5625 C-19.8470455 146.09848623 -19.8470455 146.09848623 -19 143 C-17.66666667 141 -16.33333333 139 -15 137 C-14.67 136.34 -14.34 135.68 -14 135 C-13.34 134.01 -12.68 133.02 -12 132 C-11.67 131.34 -11.34 130.68 -11 130 C-10.34 129.01 -9.68 128.02 -9 127 C-8.505 125.515 -8.505 125.515 -8 124 C-7.34 123.34 -6.68 122.68 -6 122 C-3.71110465 119.29494186 -2.12727628 117.38182883 -1 114 C-2.47193312 112.52806688 -4.05446787 112.41560289 -6.0625 111.9375 C-6.79597656 111.76089844 -7.52945313 111.58429688 -8.28515625 111.40234375 C-8.85105469 111.26957031 -9.41695312 111.13679688 -10 111 C-11.125 107.25 -11.125 107.25 -10 105 C-9.01 103.515 -9.01 103.515 -8 102 C-7.67 101.34 -7.34 100.68 -7 100 C-6.01 98.515 -6.01 98.515 -5 97 C-3.88214887 94.88214887 -3.88214887 94.88214887 -3 92 C-2.34 91.34 -1.68 90.68 -1 90 C-1 89.34 -1 88.68 -1 88 C-1.99 88.495 -1.99 88.495 -3 89 C-3.495 90.485 -3.495 90.485 -4 92 C-4.99 92.495 -4.99 92.495 -6 93 C-6.33 93.66 -6.66 94.32 -7 95 C-8 97 -8 97 -10 98 C-10.495 99.485 -10.495 99.485 -11 101 C-11.99 101.495 -11.99 101.495 -13 102 C-14.13350534 104.01669827 -14.13350534 104.01669827 -15 106 C-17.8125 106.1875 -17.8125 106.1875 -21 106 C-22.5625 104.5625 -22.5625 104.5625 -24 103 C-26.60611077 102.27802838 -26.60611077 102.27802838 -29 102 C-27.125 96.25 -27.125 96.25 -26 94 C-24.98095833 91.48636387 -23.98604992 88.96425291 -23 86.4375 C-22 84 -22 84 -20.875 81.875 C-19.78855727 79.89176146 -19.78855727 79.89176146 -20 77 C-20.66 77 -21.32 77 -22 77 C-22.66 79.31 -23.32 81.62 -24 84 C-24.66 84 -25.32 84 -26 84 C-26.33 85.65 -26.66 87.3 -27 89 C-27.66 89 -28.32 89 -29 89 C-29.433125 90.0828125 -29.433125 90.0828125 -29.875 91.1875 C-30.91666667 93.79166667 -31.95833333 96.39583333 -33 99 C-35 98.33333333 -37 97.66666667 -39 97 C-40.5778125 96.5359375 -40.5778125 96.5359375 -42.1875 96.0625 C-44.99553933 95.00168514 -45.95013876 94.04986124 -48 92 C-49.32 92 -50.64 92 -52 92 C-52 90.35 -52 88.7 -52 87 C-51.34 87 -50.68 87 -50 87 C-49.34 84.69 -48.68 82.38 -48 80 C-47.34 80 -46.68 80 -46 80 C-45.67 78.35 -45.34 76.7 -45 75 C-44.34 75 -43.68 75 -43 75 C-42.67 73.35 -42.34 71.7 -42 70 C-41.34 70 -40.68 70 -40 70 C-39.67 68.35 -39.34 66.7 -39 65 C-38.34 65 -37.68 65 -37 65 C-36.34 62.69 -35.68 60.38 -35 58 C-34.34 58 -33.68 58 -33 58 C-32.67 56.35 -32.34 54.7 -32 53 C-31.34 53 -30.68 53 -30 53 C-29.67 51.35 -29.34 49.7 -29 48 C-28.34 48 -27.68 48 -27 48 C-26.34 45.69 -25.68 43.38 -25 41 C-24.34 41 -23.68 41 -23 41 C-22.67 39.35 -22.34 37.7 -22 36 C-21.34 36 -20.68 36 -20 36 C-19.67 34.35 -19.34 32.7 -19 31 C-18.34 31 -17.68 31 -17 31 C-16.566875 29.2984375 -16.566875 29.2984375 -16.125 27.5625 C-15.75375 26.386875 -15.3825 25.21125 -15 24 C-14.34 23.67 -13.68 23.34 -13 23 C-12.29848848 21.6846659 -11.63474075 20.34882408 -11 19 C-10.34 18.01 -9.68 17.02 -9 16 C-8.67 15.34 -8.34 14.68 -8 14 C-7.34 13.01 -6.68 12.02 -6 11 C-5.67 10.34 -5.34 9.68 -5 9 C-4.505 8.38125 -4.01 7.7625 -3.5 7.125 C-2.00010242 5.0001451 -1.51902801 3.50863538 -1 1 C-0.67 0.67 -0.34 0.34 0 0 Z M9 45 C9 45.66 9 46.32 9 47 C9.66 46.67 10.32 46.34 11 46 C10.34 45.67 9.68 45.34 9 45 Z M8 47 C6.12456646 50.86763446 6.12456646 50.86763446 7 55 C7.99 53.35 8.98 51.7 10 50 C9.34 49.01 8.68 48.02 8 47 Z M-9 53 C-8 55 -8 55 -8 55 Z M-10 55 C-9 57 -9 57 -9 57 Z M-11 57 C-11.66 58.32 -12.32 59.64 -13 61 C-12.01 61.495 -12.01 61.495 -11 62 C-10.67 60.35 -10.34 58.7 -10 57 C-10.33 57 -10.66 57 -11 57 Z M-14 65 C-13 67 -13 67 -13 67 Z M14 65 C11.525 68.465 11.525 68.465 9 72 C9.99 72 10.98 72 12 72 C13.82605543 69.67881567 13.82605543 69.67881567 15 67 C14.67 66.34 14.34 65.68 14 65 Z M-15 67 C-14 69 -14 69 -14 69 Z M-18 69 C-18.66 70.32 -19.32 71.64 -20 73 C-19.34 73.66 -18.68 74.32 -18 75 C-16.45833358 73.62514468 -16.45833358 73.62514468 -15 72 C-15 71.34 -15 70.68 -15 70 C-15.99 69.67 -16.98 69.34 -18 69 Z M8 73 C8 73.99 8 74.98 8 76 C8.66 75.34 9.32 74.68 10 74 C9.34 73.67 8.68 73.34 8 73 Z M37 73 C36.67 73.66 36.34 74.32 36 75 C36.66 75 37.32 75 38 75 C37.67 74.34 37.34 73.68 37 73 Z M6 78 C7 80 7 80 7 80 Z M1 82 C0.01 83.485 0.01 83.485 -1 85 C-0.34 85.66 0.32 86.32 1 87 C1.99 86.01 2.98 85.02 4 84 C3.01 83.34 2.02 82.68 1 82 Z " fill="#EFEFEF" transform="translate(60,8)"/>
<path d="M0 0 C0.66 0.66 1.32 1.32 2 2 C1.2575 2.680625 1.2575 2.680625 0.5 3.375 C-1.22609337 4.87635519 -1.22609337 4.87635519 -1 7 C-1.66 7 -2.32 7 -3 7 C-3.33 7.66 -3.66 8.32 -4 9 C-4.66 8.01 -5.32 7.02 -6 6 C-4 4 -2 2 0 0 Z " fill="#0D0D0D" transform="translate(67,83)"/>
<path d="M0 0 C0.66 0.66 1.32 1.32 2 2 C1.34 2 0.68 2 0 2 C0 1.34 0 0.68 0 0 Z " fill="#000000" transform="translate(42,78)"/>
<path d="" fill="#000000" transform="translate(0,0)"/>
<path d="" fill="#000000" transform="translate(0,0)"/>
<path d="" fill="#000000" transform="translate(0,0)"/>
<path d="" fill="#000000" transform="translate(0,0)"/>
<path d="M0 0 C2 1 2 1 2 1 Z " fill="#000000" transform="translate(53,172)"/>
<path d="" fill="#000000" transform="translate(0,0)"/>
<path d="" fill="#000000" transform="translate(0,0)"/>
<path d="M0 0 C2 1 2 1 2 1 Z " fill="#000000" transform="translate(49,170)"/>
<path d="" fill="#000000" transform="translate(0,0)"/>
<path d="" fill="#000000" transform="translate(0,0)"/>
<path d="" fill="#000000" transform="translate(0,0)"/>
<path d="" fill="#000000" transform="translate(0,0)"/>
<path d="" fill="#000000" transform="translate(0,0)"/>
<path d="" fill="#000000" transform="translate(0,0)"/>
<path d="" fill="#000000" transform="translate(0,0)"/>
<path d="" fill="#000000" transform="translate(0,0)"/>
<path d="" fill="#000000" transform="translate(0,0)"/>
<path d="M0 0 C2 1 2 1 2 1 Z " fill="#000000" transform="translate(107,132)"/>
<path d="" fill="#000000" transform="translate(0,0)"/>
<path d="M0 0 C2 1 2 1 2 1 Z " fill="#000000" transform="translate(105,131)"/>
<path d="" fill="#000000" transform="translate(0,0)"/>
<path d="" fill="#000000" transform="translate(0,0)"/>
<path d="" fill="#000000" transform="translate(0,0)"/>
<path d="" fill="#000000" transform="translate(0,0)"/>
<path d="" fill="#000000" transform="translate(0,0)"/>
<path d="M0 0 C2 1 2 1 2 1 Z " fill="#000000" transform="translate(54,120)"/>
<path d="" fill="#000000" transform="translate(0,0)"/>
<path d="" fill="#000000" transform="translate(0,0)"/>
<path d="" fill="#000000" transform="translate(0,0)"/>
<path d="M0 0 C2 1 2 1 2 1 Z " fill="#000000" transform="translate(34,111)"/>
<path d="M0 0 C2 1 2 1 2 1 Z " fill="#000000" transform="translate(21,105)"/>
<path d="" fill="#000000" transform="translate(0,0)"/>
<path d="M0 0 C2 1 2 1 2 1 Z " fill="#000000" transform="translate(10,100)"/>
<path d="" fill="#000000" transform="translate(0,0)"/>
<path d="" fill="#000000" transform="translate(0,0)"/>
<path d="M0 0 C2 1 2 1 2 1 Z " fill="#000000" transform="translate(127,91)"/>
<path d="" fill="#000000" transform="translate(0,0)"/>
<path d="" fill="#000000" transform="translate(0,0)"/>
<path d="" fill="#000000" transform="translate(0,0)"/>
<path d="" fill="#000000" transform="translate(0,0)"/>
<path d="" fill="#000000" transform="translate(0,0)"/>
<path d="" fill="#000000" transform="translate(0,0)"/>
<path d="" fill="#000000" transform="translate(0,0)"/>
<path d="" fill="#000000" transform="translate(0,0)"/>
<path d="" fill="#000000" transform="translate(0,0)"/>
<path d="" fill="#000000" transform="translate(0,0)"/>
<path d="" fill="#000000" transform="translate(0,0)"/>
<path d="" fill="#000000" transform="translate(0,0)"/>
<path d="" fill="#000000" transform="translate(0,0)"/>
<path d="" fill="#000000" transform="translate(0,0)"/>
<path d="" fill="#000000" transform="translate(0,0)"/>
<path d="" fill="#000000" transform="translate(0,0)"/>
<path d="M0 0 C2 1 2 1 2 1 Z " fill="#000000" transform="translate(66,10)"/>
<path d="" fill="#000000" transform="translate(0,0)"/>
<path d="" fill="#000000" transform="translate(0,0)"/>
<path d="" fill="#000000" transform="translate(0,0)"/>
<path d="" fill="#000000" transform="translate(0,0)"/>
<path d="" fill="#000000" transform="translate(0,0)"/>
<path d="" fill="#000000" transform="translate(0,0)"/>
<path d="" fill="#000000" transform="translate(0,0)"/>
<path d="" fill="#000000" transform="translate(0,0)"/>
<path d="" fill="#000000" transform="translate(0,0)"/>
<path d="" fill="#000000" transform="translate(0,0)"/>
<path d="" fill="#000000" transform="translate(0,0)"/>
<path d="" fill="#000000" transform="translate(0,0)"/>
<path d="" fill="#000000" transform="translate(0,0)"/>
<path d="" fill="#000000" transform="translate(0,0)"/>
<path d="" fill="#000000" transform="translate(0,0)"/>
<path d="" fill="#000000" transform="translate(0,0)"/>
<path d="" fill="#000000" transform="translate(0,0)"/>
<path d="" fill="#000000" transform="translate(0,0)"/>
<path d="" fill="#000000" transform="translate(0,0)"/>
<path d="" fill="#000000" transform="translate(0,0)"/>
<path d="" fill="#000000" transform="translate(0,0)"/>
<path d="" fill="#000000" transform="translate(0,0)"/>
<path d="" fill="#000000" transform="translate(0,0)"/>
<path d="" fill="#000000" transform="translate(0,0)"/>
<path d="" fill="#000000" transform="translate(0,0)"/>
<path d="" fill="#000000" transform="translate(0,0)"/>
<path d="" fill="#000000" transform="translate(0,0)"/>
<path d="" fill="#000000" transform="translate(0,0)"/>
<path d="" fill="#000000" transform="translate(0,0)"/>
<path d="" fill="#000000" transform="translate(0,0)"/>
<path d="" fill="#000000" transform="translate(0,0)"/>
<path d="" fill="#000000" transform="translate(0,0)"/>
<path d="" fill="#000000" transform="translate(0,0)"/>
<path d="" fill="#000000" transform="translate(0,0)"/>
<path d="" fill="#000000" transform="translate(0,0)"/>
<path d="" fill="#000000" transform="translate(0,0)"/>
<path d="" fill="#000000" transform="translate(0,0)"/>
<path d="" fill="#000000" transform="translate(0,0)"/>
<path d="" fill="#000000" transform="translate(0,0)"/>
<path d="" fill="#000000" transform="translate(0,0)"/>
<path d="" fill="#000000" transform="translate(0,0)"/>
<path d="" fill="#000000" transform="translate(0,0)"/>
<path d="" fill="#000000" transform="translate(0,0)"/>
<path d="" fill="#000000" transform="translate(0,0)"/>
<path d="" fill="#000000" transform="translate(0,0)"/>
<path d="" fill="#000000" transform="translate(0,0)"/>
<path d="" fill="#000000" transform="translate(0,0)"/>
<path d="" fill="#000000" transform="translate(0,0)"/>
<path d="" fill="#000000" transform="translate(0,0)"/>
<path d="" fill="#000000" transform="translate(0,0)"/>
<path d="" fill="#000000" transform="translate(0,0)"/>
<path d="" fill="#000000" transform="translate(0,0)"/>
<path d="" fill="#000000" transform="translate(0,0)"/>
<path d="" fill="#000000" transform="translate(0,0)"/>
<path d="" fill="#000000" transform="translate(0,0)"/>
<path d="" fill="#000000" transform="translate(0,0)"/>
<path d="" fill="#000000" transform="translate(0,0)"/>
<path d="" fill="#000000" transform="translate(0,0)"/>
<path d="" fill="#000000" transform="translate(0,0)"/>
<path d="" fill="#000000" transform="translate(0,0)"/>
<path d="" fill="#000000" transform="translate(0,0)"/>
<path d="" fill="#000000" transform="translate(0,0)"/>
<path d="" fill="#000000" transform="translate(0,0)"/>
<path d="" fill="#000000" transform="translate(0,0)"/>
<path d="" fill="#000000" transform="translate(0,0)"/>
<path d="" fill="#000000" transform="translate(0,0)"/>
<path d="" fill="#000000" transform="translate(0,0)"/>
<path d="" fill="#000000" transform="translate(0,0)"/>
<path d="" fill="#000000" transform="translate(0,0)"/>
<path d="" fill="#000000" transform="translate(0,0)"/>
<path d="" fill="#000000" transform="translate(0,0)"/>
<path d="" fill="#000000" transform="translate(0,0)"/>
<path d="" fill="#000000" transform="translate(0,0)"/>
<path d="" fill="#000000" transform="translate(0,0)"/>
<path d="" fill="#000000" transform="translate(0,0)"/>
<path d="" fill="#000000" transform="translate(0,0)"/>
<path d="" fill="#000000" transform="translate(0,0)"/>
<path d="" fill="#000000" transform="translate(0,0)"/>
<path d="" fill="#000000" transform="translate(0,0)"/>
<path d="" fill="#000000" transform="translate(0,0)"/>
<path d="" fill="#000000" transform="translate(0,0)"/>
<path d="" fill="#000000" transform="translate(0,0)"/>
<path d="" fill="#000000" transform="translate(0,0)"/>
<path d="" fill="#000000" transform="translate(0,0)"/>
<path d="" fill="#000000" transform="translate(0,0)"/>
<path d="" fill="#000000" transform="translate(0,0)"/>
<path d="" fill="#000000" transform="translate(0,0)"/>
<path d="" fill="#000000" transform="translate(0,0)"/>
<path d="" fill="#000000" transform="translate(0,0)"/>
<path d="" fill="#000000" transform="translate(0,0)"/>
<path d="" fill="#000000" transform="translate(0,0)"/>
<path d="" fill="#000000" transform="translate(0,0)"/>
<path d="" fill="#000000" transform="translate(0,0)"/>
<path d="" fill="#000000" transform="translate(0,0)"/>
<path d="" fill="#000000" transform="translate(0,0)"/>
<path d="" fill="#000000" transform="translate(0,0)"/>
<path d="" fill="#000000" transform="translate(0,0)"/>
<path d="" fill="#000000" transform="translate(0,0)"/>
<path d="" fill="#000000" transform="translate(0,0)"/>
<path d="" fill="#000000" transform="translate(0,0)"/>
<path d="" fill="#000000" transform="translate(0,0)"/>
<path d="" fill="#000000" transform="translate(0,0)"/>
<path d="" fill="#000000" transform="translate(0,0)"/>
<path d="" fill="#000000" transform="translate(0,0)"/>
<path d="" fill="#000000" transform="translate(0,0)"/>
<path d="" fill="#000000" transform="translate(0,0)"/>
<path d="" fill="#000000" transform="translate(0,0)"/>
<path d="" fill="#000000" transform="translate(0,0)"/>
<path d="" fill="#000000" transform="translate(0,0)"/>
<path d="" fill="#000000" transform="translate(0,0)"/>
<path d="" fill="#000000" transform="translate(0,0)"/>
<path d="" fill="#000000" transform="translate(0,0)"/>
<path d="" fill="#000000" transform="translate(0,0)"/>
<path d="" fill="#000000" transform="translate(0,0)"/>
<path d="" fill="#000000" transform="translate(0,0)"/>
<path d="" fill="#000000" transform="translate(0,0)"/>
<path d="" fill="#000000" transform="translate(0,0)"/>
<path d="" fill="#000000" transform="translate(0,0)"/>
<path d="" fill="#000000" transform="translate(0,0)"/>
<path d="" fill="#000000" transform="translate(0,0)"/>
<path d="" fill="#000000" transform="translate(0,0)"/>
<path d="" fill="#000000" transform="translate(0,0)"/>
<path d="" fill="#000000" transform="translate(0,0)"/>
<path d="" fill="#000000" transform="translate(0,0)"/>
<path d="" fill="#000000" transform="translate(0,0)"/>
<path d="" fill="#000000" transform="translate(0,0)"/>
<path d="" fill="#000000" transform="translate(0,0)"/>
<path d="" fill="#000000" transform="translate(0,0)"/>
<path d="" fill="#000000" transform="translate(0,0)"/>
<path d="" fill="#000000" transform="translate(0,0)"/>
<path d="" fill="#000000" transform="translate(0,0)"/>
<path d="" fill="#000000" transform="translate(0,0)"/>
<path d="" fill="#000000" transform="translate(0,0)"/>
<path d="" fill="#000000" transform="translate(0,0)"/>
<path d="" fill="#000000" transform="translate(0,0)"/>
<path d="" fill="#000000" transform="translate(0,0)"/>
<path d="" fill="#000000" transform="translate(0,0)"/>
<path d="" fill="#000000" transform="translate(0,0)"/>
<path d="" fill="#000000" transform="translate(0,0)"/>
<path d="" fill="#000000" transform="translate(0,0)"/>
<path d="" fill="#000000" transform="translate(0,0)"/>
<path d="" fill="#000000" transform="translate(0,0)"/>
<path d="" fill="#000000" transform="translate(0,0)"/>
<path d="" fill="#000000" transform="translate(0,0)"/>
<path d="" fill="#000000" transform="translate(0,0)"/>
<path d="" fill="#000000" transform="translate(0,0)"/>
<path d="" fill="#000000" transform="translate(0,0)"/>
<path d="" fill="#000000" transform="translate(0,0)"/>
<path d="" fill="#000000" transform="translate(0,0)"/>
<path d="" fill="#000000" transform="translate(0,0)"/>
<path d="" fill="#000000" transform="translate(0,0)"/>
<path d="" fill="#000000" transform="translate(0,0)"/>
<path d="" fill="#000000" transform="translate(0,0)"/>
<path d="" fill="#000000" transform="translate(0,0)"/>
<path d="" fill="#000000" transform="translate(0,0)"/>
<path d="" fill="#000000" transform="translate(0,0)"/>
<path d="" fill="#000000" transform="translate(0,0)"/>
<path d="" fill="#000000" transform="translate(0,0)"/>
<path d="" fill="#000000" transform="translate(0,0)"/>
<path d="" fill="#000000" transform="translate(0,0)"/>
<path d="" fill="#000000" transform="translate(0,0)"/>
<path d="" fill="#000000" transform="translate(0,0)"/>
<path d="" fill="#000000" transform="translate(0,0)"/>
</svg>
